<svg width="359" height="282" viewBox="0 0 359 282" fill="none" xmlns="http://www.w3.org/2000/svg">
<g clip-path="url(#clip0)">
<path d="M127.901 23.0525C127.396 21.8187 127.118 20.4672 127.118 19.0525C127.118 13.2334 131.834 8.51344 137.657 8.51344C140.575 8.51344 143.215 9.70094 145.126 11.6166C147.004 6.15125 152.187 2.21875 158.292 2.21875C162.432 2.21875 166.149 4.025 168.697 6.89656C170.183 2.87156 174.052 0 178.592 0C183.392 0 187.438 3.2125 188.714 7.6C191.261 4.32844 195.236 2.21906 199.703 2.21906C205.808 2.21906 210.996 6.15156 212.874 11.6169C214.781 9.70094 217.421 8.51375 220.343 8.51375C226.162 8.51375 230.882 13.2338 230.882 19.0528C230.882 20.4675 230.6 21.8191 230.095 23.0528C237.206 23.6759 242.785 29.6422 242.785 36.9181C242.785 40.5391 241.4 43.8403 239.131 46.3159L218.158 71.2719L185.316 80.535L146.158 70.0088L127.211 63.6928L118.865 46.3159C116.6 43.84 115.215 40.5391 115.215 36.9181C115.215 29.6422 120.789 23.6759 127.901 23.0525Z" fill="#F7B239"/>
<path d="M239.131 46.3159H218.238H139.758H118.865H118.731L132.794 160H148.912H209.08H225.202L239.265 46.3159H239.131Z" fill="#F95428"/>
<path d="M218.238 46.3159L209.08 160H190.297L191.442 122.189C197.644 118.13 198.133 89.0569 192.566 84.9134L192.57 84.9094L193.737 46.3156H218.238V46.3159Z" fill="#F2F2F2"/>
<path d="M166.558 122.194L167.699 160.001H148.912L139.758 46.3166H164.263L165.429 84.906L165.433 84.91C159.868 89.0532 160.356 118.135 166.558 122.194Z" fill="#F2F2F2"/>
<path d="M158.215 23.0525C157.71 21.8187 157.432 20.4672 157.432 19.0525C157.432 13.2334 162.148 8.51344 167.971 8.51344C170.889 8.51344 173.529 9.70094 175.441 11.6166C176.988 7.11312 180.782 3.65625 185.485 2.57688C183.637 0.974688 181.23 0 178.592 0C174.052 0 170.183 2.87156 168.697 6.89687C166.149 4.02531 162.432 2.21906 158.293 2.21906C152.188 2.21906 147.004 6.15156 145.127 11.6169C143.215 9.70094 140.575 8.51375 137.657 8.51375C131.834 8.51375 127.118 13.2338 127.118 19.0528C127.118 20.4675 127.396 21.8191 127.901 23.0528C120.79 23.6759 115.215 29.6422 115.215 36.9181C115.215 40.5391 116.6 43.8403 118.866 46.3159H139.758H149.18C146.914 43.84 145.529 40.5391 145.529 36.9181C145.529 29.6422 151.103 23.6759 158.215 23.0525Z" fill="#E09B2D"/>
<path d="M139.758 46.3159L148.912 160H132.794L118.731 46.3159H118.865H139.758Z" fill="#E54728"/>
<path d="M192.566 84.9138C198.132 89.0569 201.737 95.6844 201.737 103.158C201.737 111.124 197.644 118.131 191.442 122.19C187.868 124.535 183.59 125.895 178.996 125.895C174.407 125.895 170.128 124.535 166.558 122.194C160.356 118.135 156.259 111.125 156.259 103.158C156.259 95.6844 159.867 89.0528 165.434 84.9097C169.219 82.0888 173.914 80.4212 178.996 80.4212C184.078 80.4209 188.777 82.0925 192.566 84.9138Z" fill="#F7B239"/>
</g>
<path d="M21.1875 251.219H21.0938L21.1875 251.312C20.625 252 20.0625 252.531 19.5 252.906C19 253.281 18.5 253.594 18 253.844C17.4375 254.094 16.9375 254.281 16.5 254.406C16.125 254.469 15.75 254.5 15.375 254.5C15 254.5 14.5625 254.469 14.0625 254.406C13.625 254.406 13.1562 254.344 12.6562 254.219C11.4688 250.469 10.4375 246.562 9.5625 242.5C8.6875 238.375 7.9375 234.594 7.3125 231.156C6.625 227.156 6.03125 223.188 5.53125 219.25C5.03125 215.438 4.625 211.625 4.3125 207.812C4.1875 206.188 4.03125 204.5 3.84375 202.75C3.71875 201 3.59375 199.25 3.46875 197.5C3.40625 195.688 3.34375 193.938 3.28125 192.25C3.28125 190.5 3.3125 188.875 3.375 187.375C4.625 186.5 5.875 185.844 7.125 185.406C8.4375 184.969 9.59375 184.625 10.5938 184.375C11.7188 184.125 12.8125 183.969 13.875 183.906C13.4375 184.406 13.0938 185.25 12.8438 186.438C12.6562 187.562 12.5625 189.188 12.5625 191.312C12.5625 193.438 12.6562 196.156 12.8438 199.469C13.0312 202.781 13.3438 206.812 13.7812 211.562C13.9688 213.25 14.1562 215.094 14.3438 217.094C14.5938 219.094 14.8438 221.188 15.0938 223.375C15.3438 225.5 15.5938 227.656 15.8438 229.844C16.1562 231.969 16.4375 234 16.6875 235.938C17.25 232.562 17.9375 228.625 18.75 224.125C19.625 219.625 20.6875 214.969 21.9375 210.156C22.8125 206.656 23.625 203.406 24.375 200.406C25.0625 197.781 25.7188 195.25 26.3438 192.812C27.0312 190.312 27.5625 188.469 27.9375 187.281C29.125 186.781 30.1562 186.438 31.0312 186.25C31.5312 186.125 31.9688 186.031 32.3438 185.969H33.6562C34.0938 185.969 34.5625 186 35.0625 186.062C35.5625 186.125 36.0938 186.25 36.6562 186.438C37.1562 191.75 37.6875 196.812 38.25 201.625C38.8125 206.375 39.3438 210.625 39.8438 214.375C40.4688 218.75 41.0625 222.781 41.625 226.469C41.9375 228.969 42.2812 231.25 42.6562 233.312C43.0938 235.375 43.4688 237.281 43.7812 239.031C44.0938 237.344 44.5 235.281 45 232.844C45.5625 230.344 46.0625 227.312 46.5 223.75C47.125 219.938 47.6875 216 48.1875 211.938C48.625 208.438 49.0312 204.562 49.4062 200.312C49.8438 196 50.1875 191.688 50.4375 187.375C50.9375 186.938 51.4375 186.562 51.9375 186.25C52.5 185.938 53.0312 185.656 53.5312 185.406C54.0938 185.156 54.6562 184.938 55.2188 184.75C55.7812 184.562 56.375 184.406 57 184.281C57.5 184.156 58.0625 184.062 58.6875 184C59.3125 183.938 59.875 183.938 60.375 184C60.0625 187.312 59.625 190.969 59.0625 194.969C58.5 198.906 57.9375 202.594 57.375 206.031C56.6875 210.094 56 214.125 55.3125 218.125C54.5625 222.125 53.7188 226.188 52.7812 230.312C51.9688 233.875 51.0312 237.719 49.9688 241.844C48.9688 245.906 47.875 249.75 46.6875 253.375C46.3125 253.75 45.875 254 45.375 254.125C44.875 254.312 44.375 254.469 43.875 254.594C43.3125 254.719 42.7812 254.781 42.2812 254.781C41.2812 254.781 40.5 254.656 39.9375 254.406C39.375 254.219 38.9375 253.906 38.625 253.469C38.375 253.094 38.1875 252.625 38.0625 252.062C37.9375 251.5 37.8125 250.875 37.6875 250.188L31.0312 202.844L21.1875 251.219ZM88.5938 242.219C88.7188 242.656 88.9062 243.062 89.1562 243.438C89.3438 243.75 89.5938 244.062 89.9062 244.375C90.2812 244.625 90.7188 244.781 91.2188 244.844C90.7812 245.719 90.3438 246.312 89.9062 246.625C89.6562 246.812 89.4375 246.938 89.25 247C88.6875 247.188 87.8438 247.281 86.7188 247.281C85.5938 247.281 84.5 246.938 83.4375 246.25C83.0625 245.938 82.7188 245.469 82.4062 244.844C82.0938 244.344 81.8125 243.656 81.5625 242.781C81.375 241.844 81.2188 240.656 81.0938 239.219C80.2188 241.094 79.2188 242.594 78.0938 243.719C77.0312 244.781 75.9688 245.562 74.9062 246.062C73.7188 246.75 72.5 247.156 71.25 247.281C69.6875 247.406 68.1875 247.156 66.75 246.531C65.375 245.844 64.1875 244.844 63.1875 243.531C62.25 242.156 61.5312 240.5 61.0312 238.562C60.5312 236.625 60.375 234.438 60.5625 232C60.75 229.438 61.25 227.156 62.0625 225.156C62.875 223.156 63.8438 221.375 64.9688 219.812C66.0938 218.25 67.2812 216.938 68.5312 215.875C69.7812 214.75 70.9688 213.844 72.0938 213.156C73.2812 212.406 74.2812 211.875 75.0938 211.562C75.9688 211.188 76.5312 210.969 76.7812 210.906C77.4688 210.719 78.0625 210.656 78.5625 210.719C79.0625 210.781 79.5 211.062 79.875 211.562C80 211.75 80.1562 211.969 80.3438 212.219C80.4688 212.469 80.625 212.812 80.8125 213.25C81 213.625 81.1562 214.062 81.2812 214.562C79.7812 215.25 78.375 216.031 77.0625 216.906C75.75 217.719 74.5312 218.719 73.4062 219.906C72.3438 221.094 71.4062 222.531 70.5938 224.219C69.7812 225.906 69.1562 227.969 68.7188 230.406C68.0938 233.469 68.25 235.938 69.1875 237.812C70.1875 239.688 71.5312 240.469 73.2188 240.156C74.2188 239.844 75.1875 239.25 76.125 238.375C76.9375 237.625 77.7812 236.5 78.6562 235C79.5938 233.5 80.4688 231.438 81.2812 228.812C81.5938 225.062 81.8438 222.125 82.0312 220C82.2812 217.812 82.5 216.156 82.6875 215.031C82.9375 213.719 83.125 212.844 83.25 212.406C83.4375 212.094 83.8125 211.812 84.375 211.562C84.9375 211.25 85.5625 211 86.25 210.812C86.9375 210.625 87.5625 210.531 88.125 210.531C88.6875 210.469 89.0625 210.469 89.25 210.531C89.375 210.594 89.4375 211.375 89.4375 212.875C89.4375 214.312 89.375 216.156 89.25 218.406C89.1875 220.594 89.0938 223 88.9688 225.625C88.8438 228.188 88.7188 230.625 88.5938 232.938C88.5312 235.25 88.4688 237.281 88.4062 239.031C88.4062 240.719 88.4688 241.781 88.5938 242.219ZM131.906 205.281C131.219 205.156 130.281 205.031 129.094 204.906C127.969 204.781 126.812 204.688 125.625 204.625C124.25 204.562 122.781 204.531 121.219 204.531C119.656 204.406 117.688 204.406 115.312 204.531C113 204.594 110.562 204.625 108 204.625C107.938 206.25 107.812 207.906 107.625 209.594C107.5 211.281 107.375 212.938 107.25 214.562C106.938 217.562 106.656 220.625 106.406 223.75C106.219 226.875 106.125 229.844 106.125 232.656C106.125 235.469 106.281 238.031 106.594 240.344C106.969 242.594 107.625 244.375 108.562 245.688C107.812 246.25 107 246.688 106.125 247C105.25 247.25 104.469 247.438 103.781 247.562C102.969 247.75 102.156 247.844 101.344 247.844C100.594 247.844 99.9688 247.594 99.4688 247.094C98.9688 246.594 98.6875 245.719 98.625 244.469C98.5 242.344 98.4688 240.219 98.5312 238.094C98.6562 235.906 98.7812 233.625 98.9062 231.25C99.0938 228.875 99.2812 226.344 99.4688 223.656C99.6562 220.906 99.8438 217.906 100.031 214.656C100.219 211.281 100.312 208 100.312 204.812C97.9375 204.875 95.9375 204.906 94.3125 204.906C92.6875 204.906 91.7812 204.875 91.5938 204.812C91.4062 204.688 91.1875 204.406 90.9375 203.969C90.6875 203.594 90.375 203.031 90 202.281C89.5625 201.531 89.0312 200.469 88.4062 199.094C89.5938 199.094 90.9062 199.094 92.3438 199.094C93.7188 199.094 95 199.062 96.1875 199C97.5625 198.938 98.9375 198.875 100.312 198.812C100.25 197.812 100.219 196.75 100.219 195.625C100.156 194.75 100.125 193.781 100.125 192.719C100.125 191.594 100.094 190.562 100.031 189.625C100.031 189.25 100.469 188.812 101.344 188.312C102.281 187.75 103.281 187.25 104.344 186.812C105.406 186.375 106.375 186.094 107.25 185.969C108.188 185.844 108.656 186.062 108.656 186.625C108.656 187.188 108.625 188.562 108.562 190.75C108.562 192.875 108.5 195.469 108.375 198.531C109 198.531 109.469 198.5 109.781 198.438C113.094 198.312 115.75 198.188 117.75 198.062C119.812 197.875 121.5 197.844 122.812 197.969C124.125 198.094 125.281 198.406 126.281 198.906C127.281 199.406 128.406 200.219 129.656 201.344C130.094 201.719 130.469 202.125 130.781 202.562C131.094 202.938 131.344 203.375 131.531 203.875C131.781 204.312 131.906 204.781 131.906 205.281ZM141.844 235.188C141.844 235.875 141.594 236.938 141.094 238.375C140.656 239.75 139.906 241.156 138.844 242.594C137.781 243.969 136.406 245.188 134.719 246.25C133.094 247.312 131.094 247.844 128.719 247.844C125.344 247.844 122.5 246.938 120.188 245.125C117.938 243.25 116.344 240.594 115.406 237.156C114.656 234.281 114.438 231.219 114.75 227.969C115.125 224.656 116.031 221.594 117.469 218.781C118.906 215.969 120.906 213.594 123.469 211.656C126.031 209.656 129.156 208.562 132.844 208.375C134.719 208.312 136.281 208.656 137.531 209.406C138.781 210.156 139.75 211.125 140.438 212.312C141.125 213.5 141.531 214.812 141.656 216.25C141.781 217.625 141.625 218.938 141.188 220.188C140.812 221.438 140.188 222.5 139.312 223.375C138.5 224.188 137.438 224.625 136.125 224.688C134.812 224.812 133.719 224.656 132.844 224.219C132.031 223.719 131.375 223.125 130.875 222.438C130.438 221.75 130.125 221.031 129.938 220.281C129.812 219.531 129.812 218.875 129.938 218.312C130.125 217.5 130.438 216.75 130.875 216.062C131.25 215.438 131.781 214.812 132.469 214.188C133.219 213.562 134.188 213.062 135.375 212.688C135.188 212.562 135 212.5 134.812 212.5C134.625 212.5 134.438 212.469 134.25 212.406C134 212.406 133.812 212.375 133.688 212.312C132.688 212.312 131.531 212.656 130.219 213.344C128.969 214.031 127.75 215.125 126.562 216.625C125.438 218.125 124.469 220.062 123.656 222.438C122.906 224.75 122.531 227.562 122.531 230.875C122.531 232.312 122.688 233.75 123 235.188C123.312 236.562 123.781 237.812 124.406 238.938C125.094 240 125.906 240.875 126.844 241.562C127.844 242.188 129 242.5 130.312 242.5C131.812 242.5 133.125 242.188 134.25 241.562C135.438 240.875 136.438 240.094 137.25 239.219C138.062 238.344 138.688 237.469 139.125 236.594C139.625 235.719 139.969 235.062 140.156 234.625C140.344 234.25 140.656 234.062 141.094 234.062C141.594 234.062 141.844 234.438 141.844 235.188ZM155.156 232.281C155.906 230.031 156.531 228.125 157.031 226.562C157.594 225 158.062 223.75 158.438 222.812C158.875 221.688 159.25 220.781 159.562 220.094C159.938 219.094 160.344 218.094 160.781 217.094C161.281 216.094 161.781 215.188 162.281 214.375C162.781 213.5 163.25 212.781 163.688 212.219C164.125 211.656 164.5 211.281 164.812 211.094C165.062 210.969 165.625 210.969 166.5 211.094C167.438 211.219 168.438 211.531 169.5 212.031C170.625 212.469 171.656 213.094 172.594 213.906C173.594 214.719 174.281 215.719 174.656 216.906C175.031 218.344 175.156 220.219 175.031 222.531C174.906 224.844 174.719 227.219 174.469 229.656C174.281 232.094 174.125 234.406 174 236.594C173.938 238.781 174.094 240.438 174.469 241.562C174.719 242.188 174.969 242.812 175.219 243.438C175.469 243.938 175.75 244.469 176.062 245.031C176.438 245.531 176.844 245.969 177.281 246.344C175.469 247.031 174 247.531 172.875 247.844C171.812 248.219 171 248.469 170.438 248.594C169.75 248.781 169.281 248.812 169.031 248.688C168.531 248.5 168.062 248.031 167.625 247.281C167.188 246.531 166.812 245.344 166.5 243.719C166.375 243.219 166.344 242.344 166.406 241.094C166.469 239.844 166.562 238.438 166.688 236.875C166.812 235.312 166.938 233.688 167.062 232C167.188 230.25 167.312 228.625 167.438 227.125C167.562 225.625 167.625 224.312 167.625 223.188C167.688 222.062 167.688 221.312 167.625 220.938C167.312 219.875 166.875 219.125 166.312 218.688C165.75 218.188 165.312 218.125 165 218.5C164.25 219.438 163.406 221.062 162.469 223.375C161.594 225.625 160.75 228.094 159.938 230.781C159.125 233.406 158.406 236.031 157.781 238.656C157.219 241.281 156.875 243.438 156.75 245.125C156.75 245.5 156.438 245.906 155.812 246.344C155.25 246.719 154.594 247.062 153.844 247.375C153.156 247.688 152.469 247.875 151.781 247.938C151.094 248.062 150.625 247.969 150.375 247.656C150.188 247.469 149.781 247.031 149.156 246.344C148.594 245.656 148.281 244.5 148.219 242.875C148.094 241.312 148.094 239.188 148.219 236.5C148.344 233.75 148.375 230.875 148.312 227.875V220.938C148.312 218.125 148.281 214.25 148.219 209.312C148.219 204.312 148.188 197.719 148.125 189.531C148.812 189.156 149.438 188.844 150 188.594C150.562 188.281 151.094 188.031 151.594 187.844C152.156 187.594 152.688 187.406 153.188 187.281C155.875 186.594 157.281 186.594 157.406 187.281C157.469 187.906 157.406 189.906 157.219 193.281C157.156 194.719 157.062 196.531 156.938 198.719C156.812 200.906 156.656 203.562 156.469 206.688C156.344 209.812 156.156 213.5 155.906 217.75C155.719 221.938 155.469 226.781 155.156 232.281ZM201.375 251.688C201.625 250.875 201.844 249.5 202.031 247.562C202.281 245.688 202.469 243.781 202.594 241.844C202.781 239.594 202.938 237.156 203.062 234.531C203.25 232.594 203.406 230.156 203.531 227.219C203.656 224.281 203.75 221.156 203.812 217.844C203.875 214.531 203.906 211.188 203.906 207.812C203.906 204.375 203.875 201.188 203.812 198.25C203.75 195.312 203.625 192.781 203.438 190.656C203.312 188.531 203.125 187.094 202.875 186.344C204.062 185.656 205.125 185.156 206.062 184.844C207 184.531 207.812 184.312 208.5 184.188C209.25 184 209.938 183.938 210.562 184C211.062 184.062 211.562 184.156 212.062 184.281C212.5 184.406 212.906 184.594 213.281 184.844C213.656 185.031 213.938 185.312 214.125 185.688C214 189.625 213.844 193.594 213.656 197.594C213.531 201.531 213.375 205.156 213.188 208.469C212.938 212.344 212.688 216.062 212.438 219.625C212.25 223.375 212.062 226.625 211.875 229.375C211.75 232.062 211.625 234.438 211.5 236.5C211.375 238.5 211.281 240.312 211.219 241.938C211.156 243.5 211.125 245.062 211.125 246.625C212.625 246.312 214.406 245.969 216.469 245.594C218.531 245.156 220.875 244.719 223.5 244.281C226 243.906 228.094 243.812 229.781 244C231.469 244.125 232.812 244.5 233.812 245.125C234.812 245.688 235.5 246.406 235.875 247.281C236.25 248.219 236.406 249.25 236.344 250.375C236.219 251.625 236.125 252.594 236.062 253.281C236 253.969 235.969 254.5 235.969 254.875C235.281 254.438 234.344 254.125 233.156 253.938C231.969 253.75 230.781 253.594 229.594 253.469C228.219 253.344 226.781 253.312 225.281 253.375C223.656 253.438 221.875 253.562 219.938 253.75C218.312 253.875 216.406 254.062 214.219 254.312C212.031 254.562 209.75 254.938 207.375 255.438C205.688 254.25 204.281 253.312 203.156 252.625C202.469 252.25 201.875 251.938 201.375 251.688ZM264.094 242.219C264.219 242.656 264.406 243.062 264.656 243.438C264.844 243.75 265.094 244.062 265.406 244.375C265.781 244.625 266.219 244.781 266.719 244.844C266.281 245.719 265.844 246.312 265.406 246.625C265.156 246.812 264.938 246.938 264.75 247C264.188 247.188 263.344 247.281 262.219 247.281C261.094 247.281 260 246.938 258.938 246.25C258.562 245.938 258.219 245.469 257.906 244.844C257.594 244.344 257.312 243.656 257.062 242.781C256.875 241.844 256.719 240.656 256.594 239.219C255.719 241.094 254.719 242.594 253.594 243.719C252.531 244.781 251.469 245.562 250.406 246.062C249.219 246.75 248 247.156 246.75 247.281C245.188 247.406 243.688 247.156 242.25 246.531C240.875 245.844 239.688 244.844 238.688 243.531C237.75 242.156 237.031 240.5 236.531 238.562C236.031 236.625 235.875 234.438 236.062 232C236.25 229.438 236.75 227.156 237.562 225.156C238.375 223.156 239.344 221.375 240.469 219.812C241.594 218.25 242.781 216.938 244.031 215.875C245.281 214.75 246.469 213.844 247.594 213.156C248.781 212.406 249.781 211.875 250.594 211.562C251.469 211.188 252.031 210.969 252.281 210.906C252.969 210.719 253.562 210.656 254.062 210.719C254.562 210.781 255 211.062 255.375 211.562C255.5 211.75 255.656 211.969 255.844 212.219C255.969 212.469 256.125 212.812 256.312 213.25C256.5 213.625 256.656 214.062 256.781 214.562C255.281 215.25 253.875 216.031 252.562 216.906C251.25 217.719 250.031 218.719 248.906 219.906C247.844 221.094 246.906 222.531 246.094 224.219C245.281 225.906 244.656 227.969 244.219 230.406C243.594 233.469 243.75 235.938 244.688 237.812C245.688 239.688 247.031 240.469 248.719 240.156C249.719 239.844 250.688 239.25 251.625 238.375C252.438 237.625 253.281 236.5 254.156 235C255.094 233.5 255.969 231.438 256.781 228.812C257.094 225.062 257.344 222.125 257.531 220C257.781 217.812 258 216.156 258.188 215.031C258.438 213.719 258.625 212.844 258.75 212.406C258.938 212.094 259.312 211.812 259.875 211.562C260.438 211.25 261.062 211 261.75 210.812C262.438 210.625 263.062 210.531 263.625 210.531C264.188 210.469 264.562 210.469 264.75 210.531C264.875 210.594 264.938 211.375 264.938 212.875C264.938 214.312 264.875 216.156 264.75 218.406C264.688 220.594 264.594 223 264.469 225.625C264.344 228.188 264.219 230.625 264.094 232.938C264.031 235.25 263.969 237.281 263.906 239.031C263.906 240.719 263.969 241.781 264.094 242.219ZM307.406 205.281C306.719 205.156 305.781 205.031 304.594 204.906C303.469 204.781 302.312 204.688 301.125 204.625C299.75 204.562 298.281 204.531 296.719 204.531C295.156 204.406 293.188 204.406 290.812 204.531C288.5 204.594 286.062 204.625 283.5 204.625C283.438 206.25 283.312 207.906 283.125 209.594C283 211.281 282.875 212.938 282.75 214.562C282.438 217.562 282.156 220.625 281.906 223.75C281.719 226.875 281.625 229.844 281.625 232.656C281.625 235.469 281.781 238.031 282.094 240.344C282.469 242.594 283.125 244.375 284.062 245.688C283.312 246.25 282.5 246.688 281.625 247C280.75 247.25 279.969 247.438 279.281 247.562C278.469 247.75 277.656 247.844 276.844 247.844C276.094 247.844 275.469 247.594 274.969 247.094C274.469 246.594 274.188 245.719 274.125 244.469C274 242.344 273.969 240.219 274.031 238.094C274.156 235.906 274.281 233.625 274.406 231.25C274.594 228.875 274.781 226.344 274.969 223.656C275.156 220.906 275.344 217.906 275.531 214.656C275.719 211.281 275.812 208 275.812 204.812C273.438 204.875 271.438 204.906 269.812 204.906C268.188 204.906 267.281 204.875 267.094 204.812C266.906 204.688 266.688 204.406 266.438 203.969C266.188 203.594 265.875 203.031 265.5 202.281C265.062 201.531 264.531 200.469 263.906 199.094C265.094 199.094 266.406 199.094 267.844 199.094C269.219 199.094 270.5 199.062 271.688 199C273.062 198.938 274.438 198.875 275.812 198.812C275.75 197.812 275.719 196.75 275.719 195.625C275.656 194.75 275.625 193.781 275.625 192.719C275.625 191.594 275.594 190.562 275.531 189.625C275.531 189.25 275.969 188.812 276.844 188.312C277.781 187.75 278.781 187.25 279.844 186.812C280.906 186.375 281.875 186.094 282.75 185.969C283.688 185.844 284.156 186.062 284.156 186.625C284.156 187.188 284.125 188.562 284.062 190.75C284.062 192.875 284 195.469 283.875 198.531C284.5 198.531 284.969 198.5 285.281 198.438C288.594 198.312 291.25 198.188 293.25 198.062C295.312 197.875 297 197.844 298.312 197.969C299.625 198.094 300.781 198.406 301.781 198.906C302.781 199.406 303.906 200.219 305.156 201.344C305.594 201.719 305.969 202.125 306.281 202.562C306.594 202.938 306.844 203.375 307.031 203.875C307.281 204.312 307.406 204.781 307.406 205.281ZM304.219 248.031C299.844 248.031 296.469 246.562 294.094 243.625C291.719 240.688 290.531 236.844 290.531 232.094C290.531 228.781 291 225.688 291.938 222.812C292.938 219.875 294.25 217.344 295.875 215.219C297.5 213.094 299.375 211.438 301.5 210.25C303.688 209 305.969 208.375 308.344 208.375C310.656 208.375 312.625 209.219 314.25 210.906C315.875 212.531 316.688 214.875 316.688 217.938C316.688 219.938 316.25 221.938 315.375 223.938C314.5 225.875 313.344 227.625 311.906 229.188C310.531 230.688 309 231.906 307.312 232.844C305.625 233.781 304 234.25 302.438 234.25C301.438 234.25 300.594 234.125 299.906 233.875C299.219 233.625 298.594 233.25 298.031 232.75C298.219 236.312 299 238.812 300.375 240.25C301.75 241.625 303.531 242.312 305.719 242.312C307.219 242.312 308.531 242 309.656 241.375C310.844 240.75 311.844 240.031 312.656 239.219C313.469 238.406 314.125 237.594 314.625 236.781C315.125 235.906 315.469 235.25 315.656 234.812C315.844 234.438 316.156 234.25 316.594 234.25C317.094 234.25 317.344 234.625 317.344 235.375C317.344 236.062 317.094 237.125 316.594 238.562C316.156 239.938 315.406 241.344 314.344 242.781C313.281 244.156 311.906 245.375 310.219 246.438C308.594 247.5 306.594 248.031 304.219 248.031ZM308.531 212.406C308.156 212.406 307.438 212.812 306.375 213.625C305.375 214.375 304.281 215.5 303.094 217C301.969 218.5 300.906 220.312 299.906 222.438C298.969 224.5 298.375 226.844 298.125 229.469C301.875 228.594 304.844 227.219 307.031 225.344C309.219 223.469 310.312 220.719 310.312 217.094C310.312 215.281 310.094 214.062 309.656 213.438C309.219 212.75 308.844 212.406 308.531 212.406ZM348.188 218.219C348.188 219.094 347.938 220 347.438 220.938C347 221.812 346.438 222.656 345.75 223.469C345.062 224.281 344.281 225 343.406 225.625C342.594 226.188 341.812 226.531 341.062 226.656C341.562 224.719 341.719 223.219 341.531 222.156C341.344 221.094 341.031 220.312 340.594 219.812C340.094 219.25 339.469 218.938 338.719 218.875C337.594 218.875 336.5 219.531 335.438 220.844C334.438 222.094 333.562 223.656 332.812 225.531C332.062 227.344 331.469 229.312 331.031 231.438C330.594 233.5 330.375 235.375 330.375 237.062C330.312 238.25 330.344 239.406 330.469 240.531C330.531 241.469 330.625 242.438 330.75 243.438C330.938 244.438 331.188 245.219 331.5 245.781C331.125 246.094 330.5 246.469 329.625 246.906C328.812 247.344 327.938 247.625 327 247.75C326.125 247.875 325.312 247.719 324.562 247.281C323.875 246.844 323.5 245.906 323.438 244.469C323.312 243.094 323.219 241.562 323.156 239.875C323.156 238.125 323.156 236.406 323.156 234.719C323.219 232.969 323.281 231.25 323.344 229.562C323.406 227.875 323.5 226.312 323.625 224.875C323.75 222.125 323.812 220 323.812 218.5C323.812 217 323.781 215.562 323.719 214.188C323.719 213.938 324.125 213.594 324.938 213.156C325.812 212.656 326.75 212.219 327.75 211.844C328.812 211.469 329.781 211.25 330.656 211.188C331.531 211.125 331.969 211.312 331.969 211.75C331.969 212.438 331.875 213.812 331.688 215.875C331.562 217.875 331.375 219.969 331.125 222.156C331.562 220.969 332.125 219.688 332.812 218.312C333.562 216.938 334.406 215.656 335.344 214.469C336.281 213.281 337.344 212.312 338.531 211.562C339.719 210.75 341.031 210.344 342.469 210.344C343.594 210.344 344.5 210.688 345.188 211.375C345.938 212.062 346.531 212.844 346.969 213.719C347.406 214.594 347.719 215.469 347.906 216.344C348.094 217.219 348.188 217.844 348.188 218.219Z" fill="#FC7A30"/>
<defs>
<clipPath id="clip0">
<rect width="160" height="160" fill="white" transform="translate(99)"/>
</clipPath>
</defs>
</svg>
